<?xml version="1.0" standalone="no"?>
<!DOCTYPE svg PUBLIC "-//W3C//DTD SVG 20010904//EN"
 "http://www.w3.org/TR/2001/REC-SVG-20010904/DTD/svg10.dtd">
<svg version="1.0" xmlns="http://www.w3.org/2000/svg"
 width="653.000000pt" height="653.000000pt" viewBox="0 0 653.000000 653.000000"
 preserveAspectRatio="xMidYMid meet">

<g transform="translate(0.000000,653.000000) scale(0.100000,-0.100000)"
fill="#000000" stroke="none">
<path d="M2940 6509 c-16 -4 -48 -18 -70 -33 -22 -14 -44 -26 -50 -26 -5 0
-10 -4 -10 -10 0 -5 -21 -10 -47 -10 -43 0 -52 -4 -95 -47 -26 -26 -50 -45
-53 -42 -2 3 11 30 30 60 56 87 42 129 -19 57 -28 -32 -36 -37 -36 -22 -1 19
-1 19 -15 0 -18 -24 -30 -15 -16 12 14 25 14 32 1 32 -5 0 -19 -19 -31 -41
-33 -67 -172 -189 -213 -189 -9 0 -26 -12 -38 -26 -13 -14 -46 -38 -73 -54
-53 -30 -97 -70 -77 -70 6 0 9 -7 6 -15 -4 -8 -13 -15 -21 -15 -8 0 -11 5 -8
10 3 6 -1 10 -9 10 -9 0 -15 -3 -14 -7 0 -5 -2 -16 -5 -25 -4 -10 -9 -25 -12
-33 -2 -8 -13 -15 -24 -15 -11 0 -23 -4 -26 -10 -9 -15 -25 -12 -25 5 0 8 -7
15 -15 15 -9 0 -15 -9 -15 -24 0 -13 -7 -26 -15 -30 -8 -3 -22 -24 -31 -46 -9
-22 -25 -45 -35 -51 -12 -6 -19 -20 -18 -37 2 -61 -14 -152 -28 -152 -9 0 -11
-5 -4 -17 14 -30 31 -88 31 -111 0 -16 4 -20 17 -15 13 5 15 2 10 -11 -4 -10
-7 -19 -7 -21 0 -2 -11 7 -25 21 -14 14 -25 34 -25 44 0 11 -4 20 -10 20 -5 0
-10 11 -10 25 0 37 -20 30 -22 -7 -5 -110 10 -191 44 -237 22 -30 23 -54 1
-87 -15 -24 -15 -29 1 -73 14 -40 16 -76 12 -242 -2 -106 -10 -221 -16 -254
-18 -89 -9 -240 17 -295 12 -25 29 -81 38 -125 9 -44 21 -98 26 -120 5 -22 16
-86 23 -143 7 -57 18 -108 25 -115 6 -6 11 -20 11 -31 0 -95 50 214 61 379 12
176 19 228 32 244 6 7 12 58 13 113 1 73 5 102 15 109 10 6 10 9 2 9 -15 0
-18 37 -4 42 5 2 12 25 15 52 6 41 5 48 -8 43 -13 -5 -14 -3 -3 13 6 11 17 20
24 20 9 0 13 15 13 44 0 26 6 51 15 60 17 17 19 33 5 38 -7 2 -7 19 0 53 14
69 14 66 35 100 56 86 100 132 100 106 0 -5 3 -13 8 -17 4 -4 7 1 7 10 0 10 6
16 13 13 6 -2 26 6 43 19 17 13 34 20 38 17 3 -4 6 -1 6 5 0 6 7 9 15 6 8 -4
21 -1 29 5 11 9 17 8 29 -4 14 -14 16 -13 22 6 6 17 9 19 16 8 10 -16 61 -20
71 -5 3 5 25 10 47 10 30 1 41 -3 41 -14 0 -9 3 -11 8 -4 11 16 42 25 42 13 0
-7 13 -9 35 -5 22 4 35 3 35 -4 0 -5 9 -10 20 -10 11 0 20 -4 20 -10 0 -5 18
-10 40 -10 28 0 45 -6 57 -20 10 -11 27 -20 38 -20 11 0 31 -7 43 -16 12 -8
26 -13 31 -10 13 8 75 -15 84 -31 7 -11 19 -13 48 -8 33 6 39 4 40 -12 1 -10
5 -5 9 12 7 28 8 28 9 5 1 -14 6 -32 11 -40 7 -12 10 -8 10 15 1 28 2 29 13
10 15 -24 46 -31 59 -13 7 9 11 10 14 1 3 -7 18 -10 39 -6 23 4 39 1 49 -10
20 -20 20 -31 1 -23 -21 8 -19 -17 5 -56 12 -20 15 -35 9 -38 -6 -4 -1 -17 11
-33 11 -14 19 -31 18 -38 -2 -7 4 -13 12 -14 9 0 14 -9 13 -23 -2 -18 4 -23
39 -29 34 -5 38 -8 23 -14 -17 -7 -18 -8 -2 -8 9 -1 17 -5 17 -9 0 -4 13 -12
28 -18 16 -6 29 -17 30 -25 1 -8 4 -27 8 -42 10 -42 -20 -70 -68 -64 -21 3
-36 1 -33 -3 6 -9 -33 -26 -49 -21 -5 1 -4 -4 3 -12 10 -13 4 -16 -37 -19 -40
-2 -48 0 -44 11 3 9 1 12 -6 7 -7 -4 -12 -2 -12 3 0 31 -65 -1 -121 -58 -36
-36 -40 -46 -35 -72 5 -25 3 -30 -9 -25 -11 4 -15 -2 -15 -19 0 -14 5 -25 10
-25 6 0 10 -7 10 -15 0 -8 6 -15 14 -15 10 0 14 -12 13 -43 0 -24 3 -48 7 -55
4 -7 10 -37 13 -68 3 -30 10 -57 14 -60 5 -3 9 -14 9 -25 0 -14 6 -19 18 -17
9 1 23 -1 31 -6 8 -5 17 -3 23 5 8 12 9 11 5 -1 -2 -8 -14 -14 -26 -13 -29 4
-26 -5 6 -18 22 -8 24 -12 13 -19 -15 -10 -13 -11 30 -14 10 0 28 -8 39 -18
22 -18 171 -25 171 -8 0 6 7 10 15 10 8 0 14 3 14 8 -4 21 3 32 21 32 10 0 30
5 44 11 20 9 30 9 48 -3 51 -33 118 -33 118 0 0 13 2 14 9 4 7 -11 9 -10 15 3
3 9 10 13 16 10 5 -3 10 1 10 9 0 9 5 16 10 16 6 0 10 5 10 10 0 6 -5 9 -11 8
-6 -2 -16 11 -22 27 -5 17 -14 33 -20 36 -5 4 -7 14 -4 23 4 9 1 16 -6 16 -7
0 -30 17 -51 39 -29 29 -50 41 -94 50 -91 20 -97 22 -81 32 18 11 2 11 -39 -1
-30 -8 -37 -6 -58 17 -25 27 -31 43 -14 43 6 0 10 -7 10 -16 0 -8 5 -12 10 -9
6 4 8 11 5 16 -4 5 1 9 9 9 9 0 16 4 16 9 0 5 8 12 18 14 10 3 6 5 -10 6 -16
0 -28 -3 -28 -9 0 -5 -12 -9 -27 -9 -21 1 -23 2 -8 6 11 3 26 10 33 15 16 14
145 23 169 13 10 -4 40 -9 67 -11 44 -3 47 -2 30 11 -15 11 -16 14 -4 15 25 0
41 -16 34 -33 -3 -10 -1 -17 5 -17 6 0 26 -16 46 -35 19 -20 40 -33 45 -30 6
3 10 -1 10 -9 0 -9 4 -16 9 -16 5 0 14 -12 19 -27 9 -25 10 -23 9 20 -1 33 -5
47 -15 47 -12 0 -12 3 -2 15 7 8 10 30 8 49 -3 32 -2 33 23 29 15 -2 30 1 34
7 3 5 13 10 21 10 11 0 12 -4 4 -19 -14 -26 -13 -31 5 -25 8 4 13 9 11 13 -3
4 -1 13 3 20 5 8 11 -13 15 -51 4 -34 12 -68 17 -75 6 -6 11 -42 13 -80 2 -37
6 -75 9 -83 3 -8 8 -49 12 -90 4 -41 13 -109 21 -150 25 -130 12 -298 -30
-377 -9 -18 -15 -36 -14 -40 3 -13 -14 -98 -21 -103 -3 -3 -13 -19 -23 -37
-12 -24 -14 -40 -7 -70 10 -45 11 -58 3 -50 -8 8 -33 -16 -27 -26 2 -4 -3 -10
-11 -13 -9 -3 -16 -10 -16 -15 0 -4 8 -6 18 -2 15 6 15 4 -2 -15 -15 -17 -17
-27 -9 -45 5 -12 7 -32 4 -43 -8 -31 -43 -74 -59 -74 -8 0 -12 -6 -9 -15 4 -8
2 -17 -4 -21 -7 -4 -6 -10 0 -18 8 -10 5 -18 -9 -31 -11 -10 -20 -24 -20 -32
0 -10 -6 -12 -20 -8 -18 6 -20 1 -22 -52 l-1 -58 -7 45 c-6 39 -7 40 -8 13 -1
-22 -7 -33 -17 -33 -8 0 -15 -9 -15 -21 0 -11 -4 -17 -10 -14 -5 3 -18 1 -29
-5 -16 -8 -20 -6 -24 8 -4 15 -6 14 -12 -4 -3 -12 -21 -28 -38 -37 -18 -9 -43
-23 -57 -30 -14 -8 -42 -23 -62 -33 -21 -10 -38 -24 -38 -31 0 -7 -6 -13 -13
-13 -7 0 -19 -9 -27 -20 -8 -11 -20 -20 -28 -20 -7 0 -11 -4 -7 -10 5 -8 -92
-60 -112 -60 -3 0 -22 12 -41 27 -20 15 -33 20 -30 12 7 -18 -62 -25 -73 -8
-4 7 -12 8 -20 3 -19 -12 -40 -11 -68 3 -14 7 -28 10 -33 7 -4 -3 -8 0 -8 5 0
6 -10 21 -22 33 -24 24 -75 27 -93 5 -5 -7 -20 -11 -31 -9 -16 2 -23 -3 -27
-20 -6 -24 -38 -41 -95 -53 -17 -4 -45 -20 -62 -36 -25 -26 -37 -30 -87 -31
-34 -1 -68 -8 -83 -17 -22 -15 -24 -15 -17 2 5 13 1 17 -18 17 -14 0 -25 -6
-25 -12 0 -9 -3 -8 -10 2 -8 13 -11 12 -23 -5 -8 -10 -12 -26 -9 -34 4 -10 7
-11 10 -3 2 7 13 12 25 11 12 0 16 -3 10 -6 -7 -2 -13 -11 -13 -19 0 -9 4 -13
9 -10 16 10 61 -13 62 -31 0 -16 2 -15 9 2 7 17 9 17 9 3 1 -20 31 -25 31 -6
0 6 2 9 4 7 2 -2 1 -23 -3 -46 -8 -41 -8 -41 25 -48 19 -3 34 -11 34 -16 0 -7
12 -8 30 -4 21 5 35 2 45 -9 17 -17 77 -36 114 -36 13 0 21 -3 18 -7 -4 -3 5
-12 19 -20 29 -14 80 -18 88 -5 5 9 46 7 86 -4 23 -6 24 -5 7 8 -17 13 -17 14
4 15 13 1 29 -3 37 -10 23 -18 62 -20 62 -2 0 21 13 19 35 -5 11 -12 22 -17
29 -12 6 5 22 6 36 2 24 -6 24 -6 5 -18 -20 -11 -20 -11 2 -12 12 0 25 -5 28
-11 4 -6 13 -8 21 -5 20 8 18 -11 -2 -22 -9 -5 -14 -14 -10 -21 11 -17 54 -13
66 6 9 14 10 14 7 2 -7 -23 7 -41 26 -33 20 7 23 24 5 25 -7 0 -4 4 7 8 26 11
147 3 160 -10 7 -7 1 -9 -20 -7 l-30 3 2 -65 c1 -52 -1 -62 -10 -49 -7 9 -19
14 -27 11 -12 -4 -13 -2 -3 9 13 17 15 89 2 89 -5 0 -12 -6 -15 -14 -3 -8 -12
-12 -20 -9 -16 6 -29 -20 -19 -37 5 -8 11 -8 21 1 20 17 19 -25 -2 -45 -11
-12 -12 -16 -3 -16 9 0 8 -5 -3 -17 -15 -14 -19 -14 -34 -2 -16 12 -17 12 -11
-3 7 -19 -17 -26 -28 -8 -8 13 -60 -14 -68 -35 -4 -8 -17 -15 -30 -15 -13 0
-37 -11 -53 -25 -16 -14 -36 -25 -45 -25 -8 0 -19 -4 -25 -9 -5 -4 -24 -11
-41 -14 -25 -5 -33 -3 -33 8 0 8 -4 15 -10 15 -5 0 -10 -7 -10 -15 0 -18 -16
-20 -26 -4 -3 6 -1 15 5 19 16 10 7 117 -12 138 -8 10 -12 23 -10 30 3 6 -2
12 -9 12 -8 0 -14 -11 -13 -27 0 -26 -3 -28 -47 -31 -36 -2 -50 -8 -62 -28 -9
-13 -12 -24 -6 -24 5 0 10 -9 10 -20 0 -13 12 -28 30 -38 30 -17 39 -32 20
-32 -21 0 -9 -20 15 -26 20 -5 24 -11 20 -25 -5 -15 0 -20 23 -25 16 -3 29
-11 29 -17 -1 -35 4 -46 17 -41 12 5 14 -6 12 -56 l-3 -61 28 5 c15 2 30 1 34
-2 3 -3 11 -7 18 -8 7 -2 25 -6 41 -9 16 -3 42 -15 58 -26 15 -11 32 -17 38
-14 5 3 10 -3 10 -13 0 -12 9 -22 22 -25 12 -4 19 -9 16 -13 -4 -3 13 -24 38
-47 42 -38 44 -43 45 -96 1 -37 3 -48 8 -31 4 19 13 25 34 26 29 0 37 -20 12
-30 -8 -3 -15 -11 -15 -17 0 -8 4 -8 15 1 9 7 18 10 21 8 7 -7 -40 -40 -89
-63 -30 -14 -40 -15 -52 -5 -8 7 -15 8 -15 3 0 -5 -13 -23 -30 -39 -16 -16
-30 -35 -30 -41 0 -7 -4 -13 -8 -13 -4 0 -12 -15 -17 -33 -8 -25 -16 -33 -38
-35 -41 -5 -137 -104 -171 -177 -50 -107 -85 -179 -106 -215 -73 -130 -248
-609 -265 -722 l-7 -48 1896 0 1896 0 0 1041 0 1041 -87 -7 c-49 -4 -123 -13
-167 -20 -59 -11 -99 -11 -165 -4 -77 9 -94 8 -161 -11 -41 -12 -101 -28 -132
-36 -32 -7 -74 -23 -95 -34 -48 -26 -94 -25 -174 1 -82 27 -183 29 -226 6 -37
-20 -211 -24 -278 -6 -22 6 -115 12 -206 14 -212 4 -267 11 -299 39 -14 12
-42 33 -62 47 -21 13 -38 27 -38 31 0 4 -14 15 -31 23 -16 9 -33 25 -37 36 -4
11 -22 39 -40 62 -62 79 -159 222 -187 274 -33 62 -58 87 -108 108 -36 15 -37
15 -37 -5 0 -12 -4 -19 -8 -16 -10 6 -5 192 8 296 5 41 27 129 49 195 23 66
41 130 41 142 0 24 19 41 29 26 18 -28 112 -46 125 -24 4 5 -3 7 -14 4 -34 -9
-80 16 -80 43 0 13 -4 24 -10 24 -14 0 -12 13 6 36 13 16 15 16 10 2 -3 -12 0
-18 9 -18 8 0 26 -11 41 -25 17 -15 39 -25 58 -25 24 0 28 -3 16 -11 -12 -8
-11 -10 5 -7 11 2 20 11 20 21 0 10 9 26 21 35 59 49 95 141 119 300 8 57 21
114 27 125 18 33 15 192 -5 259 -19 64 -64 108 -110 108 -15 0 -27 3 -27 8 0
4 8 54 16 112 9 58 19 130 24 160 12 85 31 173 42 193 5 10 13 43 18 73 5 31
21 81 35 112 14 30 30 84 35 119 4 34 12 68 16 74 18 30 44 202 44 296 0 165
-35 359 -79 438 -16 28 -27 58 -26 67 4 26 -121 203 -151 215 -8 3 -26 29 -39
57 -21 45 -33 56 -76 77 -36 16 -63 39 -90 75 -48 66 -112 120 -158 135 -49
15 -83 38 -75 50 4 7 -9 8 -37 4 -35 -5 -41 -4 -32 7 9 10 5 13 -19 15 -17 1
-38 9 -48 18 -9 8 -27 15 -39 15 -13 0 -37 10 -54 22 -20 14 -32 18 -34 11 -4
-11 -32 -7 -43 6 -25 29 -59 45 -112 53 -71 11 -460 16 -508 7z m-298 -71 c-7
-7 -12 -8 -12 -2 0 14 12 26 19 19 2 -3 -1 -11 -7 -17z m-460 -320 c-7 -7 -12
-8 -12 -2 0 14 12 26 19 19 2 -3 -1 -11 -7 -17z m8 -95 c0 -5 -5 -15 -10 -23
-8 -12 -10 -11 -10 8 0 12 5 22 10 22 6 0 10 -3 10 -7z m-90 -90 c-2 -19 -26
-103 -33 -109 -4 -4 -7 -20 -7 -36 0 -17 -4 -27 -10 -23 -5 3 -10 17 -10 31 0
13 5 24 10 24 6 0 10 13 10 29 0 35 19 91 31 91 5 0 9 -3 9 -7z m-63 -85 c-3
-8 -6 -5 -6 6 -1 11 2 17 5 13 3 -3 4 -12 1 -19z m-110 -20 c-3 -8 -6 -5 -6 6
-1 11 2 17 5 13 3 -3 4 -12 1 -19z m41 -45 c15 -33 17 -106 2 -83 -5 8 -10 29
-10 47 0 25 -3 31 -16 26 -12 -5 -14 -19 -10 -79 3 -44 1 -74 -4 -74 -6 0 -10
15 -10 34 0 19 -4 38 -10 41 -11 7 -14 74 -4 99 10 26 48 19 62 -11z m352 -87
c0 -3 -4 -8 -10 -11 -5 -3 -10 -1 -10 4 0 6 5 11 10 11 6 0 10 -2 10 -4z
m2084 -67 c14 -11 26 -27 26 -35 0 -8 9 -23 20 -34 28 -28 26 -46 -2 -28 -13
9 -24 25 -26 36 -2 12 -17 31 -33 42 -28 21 -38 40 -20 40 4 0 20 -9 35 -21z
m-2452 -168 c12 -12 15 -19 7 -17 -20 2 -39 16 -39 27 0 14 9 11 32 -10z
m1245 -207 c-3 -3 -12 -4 -19 -1 -8 3 -5 6 6 6 11 1 17 -2 13 -5z m-1057 -138
c0 -3 -4 -8 -10 -11 -5 -3 -10 -1 -10 4 0 6 5 11 10 11 6 0 10 -2 10 -4z
m1575 -66 c3 -5 1 -10 -4 -10 -6 0 -11 5 -11 10 0 6 2 10 4 10 3 0 8 -4 11
-10z m-10 -160 c-3 -5 -11 -10 -16 -10 -6 0 -7 5 -4 10 3 6 11 10 16 10 6 0 7
-4 4 -10z m-10 -30 c-3 -5 -11 -10 -16 -10 -6 0 -7 5 -4 10 3 6 11 10 16 10 6
0 7 -4 4 -10z m72 -26 c-3 -3 -12 -4 -19 -1 -8 3 -5 6 6 6 11 1 17 -2 13 -5z
m-90 -40 c-3 -3 -12 -4 -19 -1 -8 3 -5 6 6 6 11 1 17 -2 13 -5z m-17 -24 c-8
-5 -19 -10 -25 -10 -5 0 -3 5 5 10 8 5 20 10 25 10 6 0 3 -5 -5 -10z m-285
-50 c3 -5 -1 -10 -10 -10 -9 0 -13 5 -10 10 3 6 8 10 10 10 2 0 7 -4 10 -10z
m125 -170 c0 -5 -10 -10 -22 -9 -22 0 -22 1 -3 9 11 5 21 9 23 9 1 1 2 -3 2
-9z m637 -47 c-3 -10 -5 -2 -5 17 0 19 2 27 5 18 2 -10 2 -26 0 -35z m-853
-28 c3 -8 1 -15 -4 -15 -6 0 -10 7 -10 15 0 8 2 15 4 15 2 0 6 -7 10 -15z
m446 -55 c0 -5 -2 -10 -4 -10 -3 0 -8 5 -11 10 -3 6 -1 10 4 10 6 0 11 -4 11
-10z m25 -32 c-5 -29 -4 -30 12 -17 16 13 17 12 5 -3 -14 -17 -45 -13 -92 12
-13 7 -52 13 -87 13 -35 0 -63 5 -63 10 0 6 46 8 110 5 61 -2 110 -1 110 4 0
4 2 8 5 8 3 0 3 -14 0 -32z m-145 -37 c0 -6 -4 -13 -10 -16 -5 -3 -10 1 -10 9
0 9 5 16 10 16 6 0 10 -4 10 -9z m50 -20 c0 -20 -17 -37 -27 -28 -7 8 7 47 18
47 5 0 9 -9 9 -19z m187 -13 c-3 -7 -5 -2 -5 12 0 14 2 19 5 13 2 -7 2 -19 0
-25z m-352 -20 c4 -18 12 -39 18 -46 9 -11 4 -12 -29 -6 -21 4 -46 7 -54 7
-17 0 -40 16 -40 28 0 10 68 48 87 49 6 0 15 -15 18 -32z m253 -5 c8 -8 13
-15 11 -17 -29 -21 -81 -46 -98 -46 -26 0 -27 12 -1 35 11 10 20 26 20 35 0 9
3 20 6 23 8 7 42 -9 62 -30z m559 -329 c-3 -3 -12 -4 -19 -1 -8 3 -5 6 6 6 11
1 17 -2 13 -5z m32 -46 c10 -28 9 -35 -7 -48 -17 -13 -17 -18 -6 -40 12 -21
14 -22 14 -6 0 20 0 20 15 0 8 -10 15 -26 15 -35 0 -19 -37 -32 -46 -18 -3 6
-13 9 -22 8 -40 -4 -62 2 -62 15 0 10 7 13 21 11 16 -3 19 0 15 12 -5 12 -1
14 21 8 23 -5 25 -4 14 9 -8 9 -20 16 -27 16 -8 0 -14 9 -14 21 0 13 4 18 12
13 6 -4 8 -3 5 3 -8 13 15 63 30 63 6 0 16 -15 22 -32z m21 -408 c0 -5 -4 -10
-10 -10 -5 0 -10 5 -10 10 0 6 5 10 10 10 6 0 10 -4 10 -10z m-290 -305 c0 -8
-4 -15 -10 -15 -5 0 -7 7 -4 15 4 8 8 15 10 15 2 0 4 -7 4 -15z m-180 -285 c0
-5 -2 -10 -4 -10 -3 0 -8 5 -11 10 -3 6 -1 10 4 10 6 0 11 -4 11 -10z m-650
-585 c0 -8 -4 -15 -10 -15 -5 0 -10 7 -10 15 0 8 5 15 10 15 6 0 10 -7 10 -15z
m55 5 c3 -5 1 -10 -4 -10 -6 0 -11 5 -11 10 0 6 2 10 4 10 3 0 8 -4 11 -10z
m325 -100 c0 -5 -4 -10 -10 -10 -5 0 -10 5 -10 10 0 6 5 10 10 10 6 0 10 -4
10 -10z m70 0 c0 -5 -7 -10 -16 -10 -8 0 -12 5 -9 10 3 6 10 10 16 10 5 0 9
-4 9 -10z m47 -76 c-3 -3 -12 -4 -19 -1 -8 3 -5 6 6 6 11 1 17 -2 13 -5z m-72
-34 c-3 -5 -11 -10 -16 -10 -6 0 -7 5 -4 10 3 6 11 10 16 10 6 0 7 -4 4 -10z
m-560 -170 c4 -6 -7 -10 -27 -9 -31 1 -32 1 -8 9 14 4 26 8 27 9 1 1 5 -3 8
-9z m3240 -320 c3 -5 15 -10 25 -10 28 0 34 -19 14 -41 -31 -35 -77 -18 -90
34 -5 24 -3 27 19 27 14 0 29 -4 32 -10z m-2805 -144 c0 -2 -7 -6 -15 -10 -8
-3 -15 -1 -15 4 0 6 7 10 15 10 8 0 15 -2 15 -4z m-110 -196 c0 -5 -5 -10 -11
-10 -5 0 -7 5 -4 10 3 6 8 10 11 10 2 0 4 -4 4 -10z m-4 -46 c-11 -7 -22 -12
-25 -9 -2 3 4 12 15 19 10 8 21 12 24 9 3 -2 -4 -11 -14 -19z m-56 -38 c-14
-13 -27 -22 -29 -20 -7 6 31 44 43 44 6 0 -1 -11 -14 -24z m127 -648 c-3 -8
-6 -5 -6 6 -1 11 2 17 5 13 3 -3 4 -12 1 -19z m341 -138 c10 -1 -1 -35 -15
-46 -10 -7 -15 -16 -11 -20 4 -4 16 4 27 17 15 19 21 21 34 11 22 -19 40 -69
33 -94 -3 -13 -17 -35 -31 -51 l-26 -27 -27 19 c-15 11 -42 33 -60 50 -18 17
-37 31 -41 31 -4 0 -18 9 -30 19 -27 24 -22 51 17 81 24 19 63 22 130 10z
m-449 -234 c-9 -8 -10 -7 -5 7 3 10 7 24 7 30 1 7 3 4 6 -7 3 -10 -1 -23 -8
-30z m-138 -77 c-5 -13 -10 -19 -10 -12 -1 15 10 45 15 40 3 -2 0 -15 -5 -28z
m-363 -28 c3 -8 -1 -12 -9 -9 -7 2 -15 10 -17 17 -3 8 1 12 9 9 7 -2 15 -10
17 -17z"/>
<path d="M3727 402 c-23 -26 -21 -49 5 -58 37 -11 69 56 32 70 -21 8 -19 9
-37 -12z"/>
<path d="M3820 330 c-25 -25 -25 -39 -2 -56 22 -17 27 -17 46 2 22 21 20 51
-4 64 -15 8 -24 6 -40 -10z"/>
<path d="M3373 5023 c9 -2 25 -2 35 0 9 3 1 5 -18 5 -19 0 -27 -2 -17 -5z"/>
<path d="M3561 4874 c0 -11 3 -14 6 -6 3 7 2 16 -1 19 -3 4 -6 -2 -5 -13z"/>
<path d="M2433 4647 c-2 -4 -9 -5 -15 -1 -10 6 -69 -20 -102 -46 -12 -9 -16
-10 -12 -2 11 19 -9 14 -27 -6 -22 -24 -22 -42 0 -42 15 0 14 -2 -3 -16 -15
-12 -15 -15 -2 -10 9 2 19 -2 22 -10 6 -15 29 -14 90 3 14 4 18 1 13 -11 -8
-21 1 -25 78 -31 95 -7 118 -14 104 -31 -9 -11 -9 -14 0 -14 7 0 9 -5 6 -11
-4 -6 -14 -8 -22 -5 -8 3 -11 1 -8 -4 3 -6 1 -11 -4 -11 -6 -1 -15 -3 -21 -4
-5 -1 -14 -3 -20 -4 -5 0 -10 -8 -10 -16 0 -11 12 -15 45 -15 25 0 45 -4 45
-10 0 -6 -28 -10 -63 -10 -56 0 -70 -5 -142 -47 -70 -40 -125 -89 -117 -102 1
-2 19 -4 40 -4 20 0 43 -5 51 -10 14 -12 37 -18 63 -18 9 0 22 -14 29 -32 17
-42 27 -48 67 -41 18 4 47 8 65 9 18 2 37 3 42 4 6 1 23 12 39 26 16 14 35 25
42 25 8 0 16 11 20 25 3 14 11 22 16 19 6 -4 14 -1 18 6 5 8 18 15 30 17 28 4
70 51 77 85 3 15 9 28 14 28 11 0 12 34 2 44 -16 16 -29 82 -22 108 5 17 3 30
-3 34 -7 4 -5 10 6 16 21 12 21 28 -1 28 -13 0 -14 3 -6 8 9 6 8 12 -6 24 -10
8 -25 26 -35 39 -16 24 -18 24 -197 24 -100 0 -183 -3 -186 -8z m2 -147 c-3
-5 -14 -10 -23 -10 -15 0 -15 2 -2 10 20 13 33 13 25 0z m84 -6 c2 -2 -12 -4
-33 -4 -22 0 -35 4 -31 10 5 9 52 4 64 -6z m-4 -203 c3 -5 1 -12 -5 -16 -5 -3
-10 1 -10 9 0 18 6 21 15 7z m45 -6 c0 -8 -4 -15 -10 -15 -5 0 -10 7 -10 15 0
8 5 15 10 15 6 0 10 -7 10 -15z m103 -9 c3 -8 15 -16 26 -18 31 -5 2 -35 -42
-43 -38 -7 -38 -7 -32 21 11 49 14 54 29 54 7 0 16 -6 19 -14z m-233 -18 c0
-6 11 -26 25 -44 14 -18 25 -35 25 -37 0 -4 -50 -3 -90 2 -26 3 -51 28 -44 44
3 8 20 22 37 31 39 19 47 20 47 4z"/>
<path d="M3192 4585 c0 -16 2 -22 5 -12 2 9 2 23 0 30 -3 6 -5 -1 -5 -18z"/>
<path d="M4021 4564 c0 -11 3 -14 6 -6 3 7 2 16 -1 19 -3 4 -6 -2 -5 -13z"/>
<path d="M4051 4554 c0 -11 3 -14 6 -6 3 7 2 16 -1 19 -3 4 -6 -2 -5 -13z"/>
<path d="M3648 4553 c7 -3 16 -2 19 1 4 3 -2 6 -13 5 -11 0 -14 -3 -6 -6z"/>
<path d="M4093 4525 c0 -8 4 -15 9 -15 4 0 8 7 8 15 0 8 -4 15 -8 15 -5 0 -9
-7 -9 -15z"/>
<path d="M3588 4523 c6 -2 18 -2 25 0 6 3 1 5 -13 5 -14 0 -19 -2 -12 -5z"/>
<path d="M4101 4474 c0 -11 3 -14 6 -6 3 7 2 16 -1 19 -3 4 -6 -2 -5 -13z"/>
<path d="M2451 4379 c-32 -13 -22 -20 14 -11 16 5 25 11 20 14 -6 3 -21 2 -34
-3z"/>
<path d="M2297 4301 c-23 -22 -40 -42 -37 -44 3 -3 26 14 52 39 26 24 42 44
37 44 -5 0 -29 -18 -52 -39z"/>
<path d="M2785 4190 c3 -5 8 -10 11 -10 2 0 4 5 4 10 0 6 -5 10 -11 10 -5 0
-7 -4 -4 -10z"/>
<path d="M3650 4176 c0 -2 7 -7 16 -10 8 -3 12 -2 9 4 -6 10 -25 14 -25 6z"/>
<path d="M1857 3873 c-4 -3 -7 -26 -7 -49 0 -24 -5 -75 -12 -113 -10 -56 -9
-72 1 -85 8 -9 17 -16 21 -16 13 0 28 55 23 83 -4 20 -1 27 10 27 23 0 28 126
6 146 -17 15 -32 18 -42 7z m43 -124 c0 -20 -15 -26 -25 -9 -9 15 3 43 15 35
5 -3 10 -15 10 -26z"/>
<path d="M3103 3808 c-43 -30 -42 -48 2 -48 19 0 35 -4 35 -9 0 -5 25 -7 58
-4 42 3 53 2 42 -6 -13 -9 -13 -11 2 -11 9 0 18 -6 20 -12 3 -9 9 -8 22 4 15
15 15 21 4 44 -29 60 -128 82 -185 42z"/>
<path d="M2804 3801 c-18 -11 -35 -25 -39 -31 -9 -14 14 -61 27 -54 4 3 6 10
3 15 -4 5 0 9 8 9 20 0 31 -31 15 -42 -11 -6 -11 -8 0 -8 7 0 15 7 18 15 4 9
19 15 39 15 36 0 71 31 61 55 -6 16 -63 45 -88 45 -7 0 -27 -9 -44 -19z"/>
<path d="M3356 3732 c-4 -11 -20 -27 -37 -35 -18 -8 -26 -17 -20 -21 6 -4 19
-3 29 3 20 11 48 58 40 67 -4 3 -9 -3 -12 -14z"/>
<path d="M3036 3652 c-4 -11 -4 -38 -1 -61 2 -22 1 -41 -3 -41 -9 0 -12 13
-13 70 -1 24 -3 28 -6 13 -4 -22 -23 -33 -23 -15 0 5 -21 8 -47 7 -47 -1 -48
-2 -62 -44 -7 -23 -11 -44 -9 -47 3 -2 18 -6 34 -8 16 -2 50 -7 75 -11 32 -5
60 -2 94 10 49 16 142 18 151 3 3 -4 16 -8 29 -8 13 0 31 -8 41 -17 19 -19 61
-43 76 -43 23 0 84 -82 73 -100 -11 -17 -29 -11 -63 20 -33 30 -66 39 -76 21
-4 -6 -20 -6 -41 0 -19 6 -40 7 -45 4 -6 -4 -9 -1 -8 7 2 7 -7 14 -19 16 -16
2 -23 10 -23 25 0 17 2 19 9 8 7 -11 10 -9 16 8 9 29 -19 61 -46 54 -10 -3
-19 -9 -19 -13 0 -5 -19 -11 -42 -15 -24 -4 -48 -11 -54 -16 -10 -8 -36 -6
-76 7 -14 4 -18 2 -14 -5 4 -6 -4 -15 -19 -21 -28 -11 -49 -5 -40 11 4 5 -7 9
-24 9 -29 0 -49 -15 -36 -28 3 -3 10 0 15 7 7 12 12 12 32 -1 13 -9 33 -18 43
-21 20 -5 20 -5 0 -6 -11 -1 -28 -8 -39 -16 -11 -8 -30 -12 -46 -8 -21 4 -33
0 -46 -16 -10 -12 -22 -21 -26 -21 -13 0 -9 18 8 34 8 9 11 16 6 16 -5 0 -28
-21 -51 -47 -68 -79 -75 -86 -116 -109 -11 -6 -22 -25 -26 -43 -7 -31 4 -52
15 -29 5 10 7 10 12 1 7 -15 34 -17 34 -3 0 5 10 12 23 15 13 4 35 19 50 34
14 16 39 31 54 34 16 3 46 10 68 16 80 21 515 9 515 -14 0 -7 -7 -12 -16 -11
-31 2 -26 -22 5 -28 17 -3 45 -9 61 -12 23 -4 30 -2 30 10 0 25 19 19 30 -9 8
-21 15 -25 36 -21 15 3 35 12 44 21 17 15 17 20 4 51 -8 19 -12 39 -9 44 4 6
1 10 -5 10 -6 0 -9 4 -6 8 3 5 -2 31 -10 59 -17 57 -54 93 -146 137 -32 16
-58 32 -58 36 0 5 -9 12 -20 15 -11 3 -23 17 -26 31 -3 13 -10 24 -16 24 -5 0
-6 5 -2 12 5 7 0 9 -14 6 -12 -3 -23 -1 -25 5 -2 7 -25 7 -75 1 -43 -6 -76 -6
-81 -1 -5 5 -12 1 -15 -11z m64 -228 c0 -8 -4 -12 -10 -9 -5 3 -10 10 -10 16
0 5 5 9 10 9 6 0 10 -7 10 -16z m20 -28 c-6 -8 -19 -12 -27 -9 -14 6 -14 8 3
14 30 12 37 10 24 -5z"/>
<path d="M1980 3605 c-7 -13 -21 -27 -31 -30 -20 -7 -29 -34 -29 -91 0 -75 70
-129 87 -66 11 37 8 191 -4 203 -6 6 -14 0 -23 -16z"/>
<path d="M3211 3493 c0 -12 -4 -30 -7 -40 -5 -14 -4 -15 5 -7 7 6 11 24 8 40
-3 21 -4 23 -6 7z"/>
<path d="M2894 3484 c9 -8 20 -12 26 -9 15 9 2 25 -21 25 -19 0 -19 -1 -5 -16z"/>
<path d="M2795 3440 c-3 -5 -1 -10 4 -10 6 0 11 5 11 10 0 6 -2 10 -4 10 -3 0
-8 -4 -11 -10z"/>
<path d="M2988 3213 c-41 -5 -76 -39 -58 -57 16 -16 12 -26 -10 -26 -14 0 -22
-11 -31 -40 -7 -22 -9 -43 -4 -48 4 -4 10 -1 12 6 3 6 9 12 15 12 6 0 7 -7 4
-16 -6 -15 6 -16 119 -12 74 3 125 2 125 -4 0 -5 5 -6 10 -3 6 4 8 11 5 16 -4
5 1 16 9 25 9 8 16 22 16 30 0 8 5 12 10 9 18 -11 10 25 -10 45 -11 11 -20 15
-20 9 0 -5 -11 1 -24 15 -13 15 -28 26 -35 26 -6 0 -20 6 -31 13 -17 10 -22 9
-31 -3 -8 -11 -12 -12 -16 -2 -2 6 -8 11 -11 10 -4 -1 -24 -3 -44 -5z"/>
<path d="M2065 3140 c-3 -5 -2 -10 4 -10 5 0 13 5 16 10 3 6 2 10 -4 10 -5 0
-13 -4 -16 -10z"/>
<path d="M3230 3109 c0 -5 5 -7 10 -4 6 3 10 8 10 11 0 2 -4 4 -10 4 -5 0 -10
-5 -10 -11z"/>
<path d="M3300 2710 c0 -19 3 -21 12 -12 9 9 9 15 0 24 -9 9 -12 7 -12 -12z"/>
<path d="M3138 2263 c7 -3 16 -2 19 1 4 3 -2 6 -13 5 -11 0 -14 -3 -6 -6z"/>
<path d="M3222 2248 c5 -15 28 -23 28 -10 0 5 -7 13 -16 16 -10 4 -14 1 -12
-6z"/>
<path d="M3075 2179 c-10 -15 3 -25 16 -12 7 7 7 13 1 17 -6 3 -14 1 -17 -5z"/>
<path d="M3145 2160 c-3 -5 -3 -10 1 -10 4 0 -1 -6 -12 -14 -10 -8 -16 -17
-13 -21 9 -8 39 23 39 41 0 16 -6 18 -15 4z"/>
<path d="M2417 1985 c-58 -62 -71 -94 -73 -175 0 -41 -6 -88 -13 -104 -6 -16
-13 -42 -15 -58 -1 -16 -8 -34 -14 -40 -15 -15 -16 -65 -2 -73 8 -5 8 -60 0
-60 -1 0 -4 -12 -5 -27 -3 -20 0 -25 11 -21 8 3 14 -1 14 -11 0 -9 -6 -13 -14
-10 -14 5 -31 -36 -18 -46 9 -6 9 -80 0 -80 -4 0 -10 -9 -13 -20 -4 -13 -11
-17 -18 -13 -7 4 -21 8 -32 9 -11 1 -40 5 -65 9 -41 8 -44 7 -31 -8 7 -10 10
-17 6 -17 -4 0 -2 -7 5 -15 10 -12 9 -16 -4 -21 -9 -3 -16 -12 -16 -20 0 -23
-85 -104 -108 -104 -12 0 -22 -4 -22 -10 0 -23 -53 -43 -123 -46 -40 -1 -85
-7 -101 -14 -67 -25 -44 18 69 128 91 89 108 112 84 112 -9 0 -32 -15 -129
-85 -15 -11 -108 -73 -206 -139 -99 -65 -222 -150 -274 -189 -117 -88 -431
-399 -497 -493 -28 -39 -56 -180 -42 -207 8 -14 8 -26 -1 -42 -6 -12 -10 -37
-8 -56 l3 -34 441 -3 442 -2 11 117 c7 65 16 134 21 154 6 20 10 50 10 66 0
16 9 69 20 119 11 49 20 104 20 122 0 17 5 32 10 32 6 0 10 11 10 24 0 14 4
27 9 30 5 4 12 25 16 49 3 23 10 51 15 62 5 11 20 56 35 100 33 102 48 135 59
135 4 0 5 -8 1 -17 -27 -66 -45 -121 -45 -140 0 -13 -4 -23 -9 -23 -8 0 -19
-37 -27 -91 -2 -14 -12 -47 -23 -72 -11 -25 -27 -83 -36 -129 -9 -46 -20 -96
-25 -113 -4 -16 -11 -57 -15 -90 -4 -33 -9 -76 -12 -95 -2 -19 -6 -71 -8 -115
-2 -44 -7 -90 -10 -103 l-7 -22 395 0 395 0 4 30 c3 17 1 30 -4 30 -4 0 -8 -7
-8 -15 0 -12 -9 -15 -35 -12 -20 3 -39 8 -43 12 -4 4 10 5 31 2 20 -3 37 -2
37 3 0 5 -11 10 -25 12 -19 2 -22 6 -15 18 9 13 11 13 20 0 9 -13 11 -13 20 0
8 12 11 13 19 1 7 -11 10 -11 15 0 3 8 4 2 2 -13 -1 -15 2 -29 8 -32 7 -3 7
-5 -1 -5 -7 -1 -13 -8 -13 -16 0 -13 21 -15 125 -15 l125 0 0 28 c0 49 30 155
76 271 46 117 50 155 18 182 -8 6 -14 17 -14 24 0 11 -24 72 -51 130 -5 11
-20 65 -33 120 -53 214 -75 293 -105 373 -17 46 -31 94 -31 108 0 33 -20 30
-74 -11 -46 -35 -66 -43 -66 -27 0 5 11 19 25 32 14 13 25 27 25 31 0 3 7 23
15 43 13 31 18 34 38 27 19 -7 26 -5 36 12 17 26 17 153 0 173 -9 11 -9 17 1
29 10 12 9 20 -4 40 -10 15 -24 29 -32 32 -16 6 -19 33 -4 33 6 0 10 -3 10 -7
0 -5 11 -21 25 -38 18 -23 24 -26 25 -13 0 10 -13 31 -30 48 -16 17 -30 34
-30 38 0 5 -7 17 -16 28 -15 18 -15 18 -10 -11 4 -19 3 -24 -2 -15 -7 13 -34
140 -60 290 l-7 44 -28 -29z m-60 -557 c-3 -8 -6 -5 -6 6 -1 11 2 17 5 13 3
-3 4 -12 1 -19z m-192 -228 c-3 -5 -2 -10 3 -10 4 0 19 -15 32 -32 l24 -33
-32 27 c-17 14 -37 28 -44 31 -10 4 -10 8 2 16 19 13 23 14 15 1z m-61 -125
c-9 -14 -21 -25 -27 -25 -6 0 0 11 13 25 13 14 25 25 27 25 2 0 -4 -11 -13
-25z m166 1 c0 -3 -4 -8 -10 -11 -5 -3 -10 -1 -10 4 0 6 5 11 10 11 6 0 10 -2
10 -4z m-185 -65 c-3 -12 -11 -19 -16 -16 -5 4 -3 14 3 25 15 24 22 19 13 -9z
m-50 -1 c-10 -11 -20 -18 -23 -16 -5 6 21 35 32 36 5 0 1 -9 -9 -20z m11 -35
c-11 -8 -22 -12 -25 -9 -6 6 19 24 34 24 6 -1 1 -7 -9 -15z m34 -10 c0 -8 -9
-19 -20 -25 -14 -7 -20 -7 -20 0 0 5 7 10 15 10 8 0 15 7 15 15 0 8 2 15 5 15
3 0 5 -7 5 -15z m299 -42 c0 -5 -4 -17 -9 -28 -8 -18 -9 -17 -9 8 -1 15 4 27
9 27 6 0 10 -3 9 -7z m17 -121 c4 -20 9 -23 29 -18 25 6 25 5 25 -54 0 -38 4
-59 10 -55 6 4 10 -16 10 -52 0 -32 4 -65 10 -73 5 -9 5 -19 -2 -27 -8 -10 -5
-13 13 -14 17 -1 10 -5 -21 -15 -25 -8 -50 -12 -56 -10 -12 5 -35 246 -33 342
1 32 4 46 6 29 2 -16 6 -41 9 -53z m-956 -42 c0 -5 -7 -7 -15 -4 -8 4 -12 10
-9 15 6 11 24 2 24 -11z m30 -31 c0 -6 -4 -7 -10 -4 -5 3 -10 11 -10 16 0 6 5
7 10 4 6 -3 10 -11 10 -16z m-300 -84 c0 -8 -7 -15 -15 -15 -9 0 -12 6 -9 15
4 8 10 15 15 15 5 0 9 -7 9 -15z m54 -90 c3 -8 1 -15 -4 -15 -6 0 -10 7 -10
15 0 8 2 15 4 15 2 0 6 -7 10 -15z m-94 -5 c0 -5 -4 -10 -10 -10 -5 0 -10 5
-10 10 0 6 5 10 10 10 6 0 10 -4 10 -10z m1530 6 c0 -3 -4 -8 -10 -11 -5 -3
-10 -1 -10 4 0 6 5 11 10 11 6 0 10 -2 10 -4z m-13 -58 c-3 -8 -6 -5 -6 6 -1
11 2 17 5 13 3 -3 4 -12 1 -19z m-1506 -69 c-6 -16 -10 -18 -10 -7 -1 22 12
55 16 42 2 -6 -1 -22 -6 -35z m163 25 c10 -26 7 -84 -4 -84 -7 0 -8 13 -5 34
4 20 2 36 -4 40 -13 9 -15 26 -2 26 5 0 12 -7 15 -16z m-209 -3 c3 -5 1 -12
-5 -16 -5 -3 -10 1 -10 9 0 18 6 21 15 7z m1382 -48 c-3 -10 -5 -2 -5 17 0 19
2 27 5 18 2 -10 2 -26 0 -35z m287 -48 c6 -39 6 -39 -8 -15 -9 14 -15 36 -16
50 0 36 17 12 24 -35z m-24 -25 c0 -11 -2 -20 -4 -20 -2 0 -6 9 -9 20 -3 11
-1 20 4 20 5 0 9 -9 9 -20z m-244 -38 c-2 -15 -10 -28 -20 -30 -20 -4 -21 -22
-1 -22 24 0 17 -136 -7 -143 -3 -1 -15 6 -25 16 -11 9 -22 14 -26 11 -10 -11
-23 31 -20 66 2 19 4 55 6 80 2 43 3 45 35 47 19 1 36 4 39 7 12 11 21 -5 19
-32z m-1409 6 c-3 -8 -6 -5 -6 6 -1 11 2 17 5 13 3 -3 4 -12 1 -19z m260 0
c-3 -8 -6 -5 -6 6 -1 11 2 17 5 13 3 -3 4 -12 1 -19z m1200 16 c-3 -3 -12 -4
-19 -1 -8 3 -5 6 6 6 11 1 17 -2 13 -5z m-1510 -26 c-3 -8 -6 -5 -6 6 -1 11 2
17 5 13 3 -3 4 -12 1 -19z m1743 12 c0 -12 -28 -70 -34 -70 -12 0 -11 42 1 59
15 22 33 28 33 11z m-163 -72 c-2 -13 -4 -3 -4 22 0 25 2 35 4 23 2 -13 2 -33
0 -45z m-1767 -72 c0 -6 -7 -2 -15 8 -8 11 -15 25 -15 30 0 6 7 2 15 -8 8 -11
15 -25 15 -30z m165 24 c3 -5 1 -10 -4 -10 -6 0 -11 5 -11 10 0 6 2 10 4 10 3
0 8 -4 11 -10z m302 -42 c-3 -8 -6 -5 -6 6 -1 11 2 17 5 13 3 -3 4 -12 1 -19z
m-227 -12 c0 -3 -4 -8 -10 -11 -5 -3 -10 -1 -10 4 0 6 5 11 10 11 6 0 10 -2
10 -4z m1537 -28 c-3 -7 -5 -2 -5 12 0 14 2 19 5 13 2 -7 2 -19 0 -25z m-1782
12 c3 -5 1 -10 -4 -10 -6 0 -11 5 -11 10 0 6 2 10 4 10 3 0 8 -4 11 -10z m109
-39 c-7 -7 -34 21 -28 31 3 5 12 1 19 -9 7 -10 12 -20 9 -22z m-34 -12 c0 -11
-4 -18 -10 -14 -5 3 -7 12 -3 20 7 21 13 19 13 -6z m1698 -36 c-15 -2 -42 -2
-60 0 -18 2 -6 4 27 4 33 0 48 -2 33 -4z"/>
<path d="M2417 750 c-3 -11 -1 -20 4 -20 5 0 9 9 9 20 0 11 -2 20 -4 20 -2 0
-6 -9 -9 -20z"/>
<path d="M2400 710 c0 -5 5 -10 10 -10 6 0 10 5 10 10 0 6 -4 10 -10 10 -5 0
-10 -4 -10 -10z"/>
<path d="M2433 565 c0 -22 2 -30 4 -17 2 12 2 30 0 40 -3 9 -5 -1 -4 -23z"/>
<path d="M2420 250 c0 -5 7 -10 15 -10 8 0 15 5 15 10 0 6 -7 10 -15 10 -8 0
-15 -4 -15 -10z"/>
<path d="M2425 199 c-11 -17 1 -21 15 -4 8 9 8 15 2 15 -6 0 -14 -5 -17 -11z"/>
<path d="M2462 150 c0 -19 2 -27 5 -17 2 9 2 25 0 35 -3 9 -5 1 -5 -18z"/>
<path d="M2420 154 c0 -8 5 -12 10 -9 6 3 10 10 10 16 0 5 -4 9 -10 9 -5 0
-10 -7 -10 -16z"/>
<path d="M3080 1711 c0 -5 -3 -18 -6 -28 -5 -15 -4 -16 5 -3 10 13 13 13 26
-4 15 -20 15 -20 15 0 0 20 -17 44 -32 44 -4 0 -8 -4 -8 -9z"/>
<path d="M3160 1666 c0 -2 7 -6 15 -10 8 -3 15 -1 15 4 0 6 -7 10 -15 10 -8 0
-15 -2 -15 -4z"/>
<path d="M2096 1310 c-26 -36 -36 -61 -36 -87 0 -45 18 -33 23 16 3 20 14 41
30 54 26 23 46 67 29 67 -6 0 -26 -23 -46 -50z"/>
</g>
</svg>
